<svg width="637" height="228" viewBox="0 0 637 228" fill="none" xmlns="http://www.w3.org/2000/svg">
<path d="M296.216 165C288.416 165 282.166 163.1 277.466 159.3C272.766 155.5 270.416 148.75 270.416 139.05V106.65H257.666V90.6H270.416L272.666 70.65H289.616V90.6H309.716V106.65H289.616V139.2C289.616 142.8 290.366 145.3 291.866 146.7C293.466 148 296.166 148.65 299.966 148.65H309.266V165H296.216Z" fill="#323339"/>
<path d="M318.701 165V90.6H335.801L337.601 104.55C340.301 99.75 343.951 95.95 348.551 93.15C353.251 90.25 358.751 88.8 365.051 88.8V109.05H359.651C355.451 109.05 351.701 109.7 348.401 111C345.101 112.3 342.501 114.55 340.601 117.75C338.801 120.95 337.901 125.4 337.901 131.1V165H318.701Z" fill="#323339"/>
<path d="M405.055 166.8C397.855 166.8 391.355 165.15 385.555 161.85C379.855 158.55 375.305 154 371.905 148.2C368.605 142.3 366.955 135.5 366.955 127.8C366.955 120.1 368.655 113.35 372.055 107.55C375.455 101.65 380.005 97.05 385.705 93.75C391.505 90.45 398.005 88.8 405.205 88.8C412.305 88.8 418.705 90.45 424.405 93.75C430.205 97.05 434.755 101.65 438.055 107.55C441.455 113.35 443.155 120.1 443.155 127.8C443.155 135.5 441.455 142.3 438.055 148.2C434.755 154 430.205 158.55 424.405 161.85C418.605 165.15 412.155 166.8 405.055 166.8ZM405.055 150.15C410.055 150.15 414.405 148.3 418.105 144.6C421.805 140.8 423.655 135.2 423.655 127.8C423.655 120.4 421.805 114.85 418.105 111.15C414.405 107.35 410.105 105.45 405.205 105.45C400.105 105.45 395.705 107.35 392.005 111.15C388.405 114.85 386.605 120.4 386.605 127.8C386.605 135.2 388.405 140.8 392.005 144.6C395.705 148.3 400.055 150.15 405.055 150.15Z" fill="#323339"/>
<path d="M524.522 90.6V165H507.572L506.072 152.4C503.772 156.8 500.422 160.3 496.022 162.9C491.722 165.5 486.622 166.8 480.722 166.8C471.522 166.8 464.372 163.9 459.272 158.1C454.172 152.3 451.622 143.8 451.622 132.6V90.6H470.822V130.8C470.822 137.2 472.122 142.1 474.722 145.5C477.322 148.9 481.372 150.6 486.872 150.6C492.272 150.6 496.672 148.7 500.072 144.9C503.572 141.1 505.322 135.8 505.322 129V90.6H524.522Z" fill="#323339"/>
<path d="M536.582 198V90.6H553.682L555.782 101.25C558.182 97.95 561.332 95.05 565.232 92.55C569.232 90.05 574.382 88.8 580.682 88.8C587.682 88.8 593.932 90.5 599.432 93.9C604.932 97.3 609.282 101.95 612.482 107.85C615.682 113.75 617.282 120.45 617.282 127.95C617.282 135.45 615.682 142.15 612.482 148.05C609.282 153.85 604.932 158.45 599.432 161.85C593.932 165.15 587.682 166.8 580.682 166.8C575.082 166.8 570.182 165.75 565.982 163.65C561.782 161.55 558.382 158.6 555.782 154.8V198H536.582ZM576.632 150C582.732 150 587.782 147.95 591.782 143.85C595.782 139.75 597.782 134.45 597.782 127.95C597.782 121.45 595.782 116.1 591.782 111.9C587.782 107.7 582.732 105.6 576.632 105.6C570.432 105.6 565.332 107.7 561.332 111.9C557.432 116 555.482 121.3 555.482 127.8C555.482 134.3 557.432 139.65 561.332 143.85C565.332 147.95 570.432 150 576.632 150Z" fill="#323339"/>
<path d="M168.625 0H59.375C26.5831 0 0 26.5831 0 59.375V168.625C0 201.417 26.5831 228 59.375 228H168.625C201.417 228 228 201.417 228 168.625V59.375C228 26.5831 201.417 0 168.625 0Z" fill="#4FACFE"/>
<path d="M168.625 0H59.375C26.5831 0 0 26.5831 0 59.375V168.625C0 201.417 26.5831 228 59.375 228H168.625C201.417 228 228 201.417 228 168.625V59.375C228 26.5831 201.417 0 168.625 0Z" fill="url(#paint0_linear)"/>
<path d="M108.748 91.55C111.774 89.812 116.72 89.8214 119.736 91.55L161.168 115.506C164.184 117.251 166.652 121.522 166.646 125.004V134.093C166.646 137.576 164.165 138.997 161.145 137.259L119.749 113.325C116.732 111.581 111.787 111.571 108.761 113.309L67.2505 137.152C64.2243 138.887 61.75 137.468 61.75 133.986V124.868C61.75 121.385 64.2243 117.118 67.2505 115.37L108.748 91.55Z" fill="#FFFFF4"/>
<path d="M108.748 91.55C111.774 89.812 116.72 89.8214 119.736 91.55L161.168 115.506C164.184 117.251 166.652 121.522 166.646 125.004V134.093C166.646 137.576 164.165 138.997 161.145 137.259L119.749 113.325C116.732 111.581 111.787 111.571 108.761 113.309L67.2505 137.152C64.2243 138.887 61.75 137.468 61.75 133.986V124.868C61.75 121.385 64.2243 117.118 67.2505 115.37L108.748 91.55Z" fill="url(#paint1_linear)"/>
<defs>
<linearGradient id="paint0_linear" x1="114" y1="0" x2="114" y2="228" gradientUnits="userSpaceOnUse">
<stop stop-color="#38F9D7"/>
<stop offset="1" stop-color="#4FACFE"/>
</linearGradient>
<linearGradient id="paint1_linear" x1="114.198" y1="90.25" x2="114.198" y2="138.001" gradientUnits="userSpaceOnUse">
<stop stop-color="white"/>
<stop offset="1" stop-color="#FFFFF4"/>
</linearGradient>
</defs>
</svg>
