<svg width="106" height="48" viewBox="0 0 106 48" fill="none" xmlns="http://www.w3.org/2000/svg">
<path d="M47.7482 1.55003C50.7744 -0.188049 55.7197 -0.178551 58.7364 1.55003L100.168 25.5064C103.184 27.2508 105.652 31.5216 105.646 35.0041V44.0934C105.646 47.5759 103.165 48.9974 100.145 47.2593L58.7491 23.3251C55.7324 21.5807 50.7871 21.5712 47.7609 23.3093L6.25046 47.1517C3.22426 48.8866 0.75 47.4683 0.75 43.9858V34.868C0.75 31.3855 3.22426 27.1179 6.25046 25.3703L47.7482 1.55003Z" fill="#4FACFE"/>
<path d="M47.7482 1.55003C50.7744 -0.188049 55.7197 -0.178551 58.7364 1.55003L100.168 25.5064C103.184 27.2508 105.652 31.5216 105.646 35.0041V44.0934C105.646 47.5759 103.165 48.9974 100.145 47.2593L58.7491 23.3251C55.7324 21.5807 50.7871 21.5712 47.7609 23.3093L6.25046 47.1517C3.22426 48.8866 0.75 47.4683 0.75 43.9858V34.868C0.75 31.3855 3.22426 27.1179 6.25046 25.3703L47.7482 1.55003Z" fill="url(#paint0_linear)"/>
<defs>
<linearGradient id="paint0_linear" x1="53.1979" y1="0.250031" x2="53.1979" y2="48.0011" gradientUnits="userSpaceOnUse">
<stop stop-color="#38F9D7"/>
<stop offset="1" stop-color="#4FACFE"/>
</linearGradient>
</defs>
</svg>
